<svg id="Componente_34_1" data-name="Componente 34 – 1" xmlns="http://www.w3.org/2000/svg" width="433" height="58.532" viewBox="0 0 433 58.532">
  <path id="Tracciato_74" data-name="Tracciato 74" d="M572.277-86.684,571.1-89.936c-.2-.56-.427-1.5-.427-1.5h-.031s-.213.936-.412,1.5l-1.174,3.252Zm-6.5,3.041h.215c.274,0,.412-.061.5-.332l3.372-9.045h1.6l3.369,9.045a.441.441,0,0,0,.5.332h.228v1.3h-.853c-.764,0-1.008-.182-1.251-.878l-.809-2.194h-3.967l-.808,2.194a1.084,1.084,0,0,1-1.266.878h-.839Z" transform="translate(-503.859 137.637)" fill="#747474"/>
  <path id="Tracciato_75" data-name="Tracciato 75" d="M572.1-89.84a.3.3,0,0,0-.337-.332h-.625v-1.256h1.45c.7,0,.99.287.99.938v3.63c0,1.058.214,1.905,1.435,1.905a2.644,2.644,0,0,0,2.517-2.889v-3.584h1.479v6.065a.3.3,0,0,0,.337.332h.625v1.256h-1.418c-.657,0-.977-.3-.977-.847v-.287c0-.243.015-.439.015-.439h-.031a3.1,3.1,0,0,1-2.837,1.755c-1.739,0-2.624-.908-2.624-2.935Z" transform="translate(-498.953 139.07)" fill="#747474"/>
  <path id="Tracciato_76" data-name="Tracciato 76" d="M577.115-89.253h-1.008v-1.18h1.038v-2.1h1.448v2.1h1.847v1.18h-1.847v3.508a1.519,1.519,0,0,0,1.634,1.725,1.793,1.793,0,0,0,.351-.03v1.3a3.8,3.8,0,0,1-.519.03,2.648,2.648,0,0,1-2.944-2.859Z" transform="translate(-494.402 138.074)" fill="#747474"/>
  <path id="Tracciato_77" data-name="Tracciato 77" d="M583.163-84.777a2.654,2.654,0,0,0,2.653-2.754,2.636,2.636,0,0,0-2.653-2.722,2.634,2.634,0,0,0-2.64,2.722,2.653,2.653,0,0,0,2.64,2.754m0-6.747a4.011,4.011,0,0,1,4.165,3.993,4.026,4.026,0,0,1-4.165,4.023,4.012,4.012,0,0,1-4.149-4.023,4,4,0,0,1,4.149-3.993" transform="translate(-491.74 138.984)" fill="#747474"/>
  <path id="Tracciato_78" data-name="Tracciato 78" d="M584.777-89.8a.3.3,0,0,0-.335-.332h-.626v-1.256h1.4c.672,0,.992.272.992.893v.482a4.429,4.429,0,0,1-.031.532h.031a2.646,2.646,0,0,1,2.441-2,3.021,3.021,0,0,1,.4.03v1.451a2.214,2.214,0,0,0-.443-.046,2.338,2.338,0,0,0-2.167,1.8,4.6,4.6,0,0,0-.182,1.377v3.13h-1.481Z" transform="translate(-487.345 139.027)" fill="#747474"/>
  <path id="Tracciato_79" data-name="Tracciato 79" d="M589.257-93.021v1.527h-1.328v-1.527ZM587.9-88.407a.3.3,0,0,0-.337-.332h-.624V-90h1.45c.686,0,.975.287.975.967v5.1a.3.3,0,0,0,.335.332h.626v1.256h-1.45c-.686,0-.975-.287-.975-.969Z" transform="translate(-484.486 137.637)" fill="#747474"/>
  <path id="Tracciato_80" data-name="Tracciato 80" d="M590.1-89.253H589.1v-1.18h1.038v-2.1h1.448v2.1h1.847v1.18h-1.847v3.508a1.519,1.519,0,0,0,1.634,1.725,1.8,1.8,0,0,0,.351-.03v1.3a3.8,3.8,0,0,1-.519.03,2.648,2.648,0,0,1-2.945-2.859Z" transform="translate(-482.509 138.074)" fill="#747474"/>
  <path id="Tracciato_81" data-name="Tracciato 81" d="M594.954-83.339a2.325,2.325,0,0,0,2.059-2.435v-.258h-.381c-1.113,0-3.126.061-3.126,1.468a1.281,1.281,0,0,0,1.448,1.225m-1.51-9.682h1.494l1.113,1.922h-1.159Zm3.218,5.915H597v-.076c0-1.347-.5-1.829-1.709-1.829-.366,0-1.266.089-1.266.589v.439h-1.387v-.756c0-1.256,1.921-1.438,2.668-1.438,2.5,0,3.174,1.3,3.174,3v3.254a.3.3,0,0,0,.335.332h.625v1.254h-1.387c-.688,0-.962-.332-.962-.876a3.243,3.243,0,0,1,.031-.454h-.031a2.636,2.636,0,0,1-2.456,1.512,2.407,2.407,0,0,1-2.624-2.329c0-2.466,3.356-2.617,4.653-2.617" transform="translate(-479.841 137.637)" fill="#747474"/>
  <path id="Tracciato_82" data-name="Tracciato 82" d="M604.4-86.185c0-1.362-.716-2.722-2.2-2.722-1.207,0-2.213,1-2.213,2.737,0,1.664.9,2.739,2.182,2.739,1.144,0,2.226-.8,2.226-2.754m-2.425-3.993A2.579,2.579,0,0,1,604.357-89h.031a4.272,4.272,0,0,1-.031-.515v-1.92a.3.3,0,0,0-.335-.332H603.4v-1.256h1.464c.688,0,.977.287.977.969v8.122a.3.3,0,0,0,.335.332h.627v1.256h-1.42c-.672,0-.946-.3-.946-.817,0-.226.015-.393.015-.393h-.031a2.73,2.73,0,0,1-2.532,1.39c-2.09,0-3.4-1.632-3.4-4.008,0-2.435,1.45-4.008,3.494-4.008" transform="translate(-473.912 137.637)" fill="#747474"/>
  <path id="Tracciato_83" data-name="Tracciato 83" d="M605.543-93.021v1.527h-1.328v-1.527Zm-1.358,4.614a.3.3,0,0,0-.335-.332h-.626V-90h1.45c.686,0,.975.287.975.967v5.1a.3.3,0,0,0,.337.332h.625v1.256h-1.448c-.686,0-.977-.287-.977-.969Z" transform="translate(-469.574 137.637)" fill="#747474"/>
  <path id="Tracciato_84" data-name="Tracciato 84" d="M612.143-87.892a1.746,1.746,0,0,0,1.847-1.937,1.7,1.7,0,0,0-1.816-1.89h-2.015v3.827Zm-3.51-3.827h-.99v-1.3h4.7a2.983,2.983,0,0,1,3.218,3.13,2.752,2.752,0,0,1-1.939,2.83v.029a1.181,1.181,0,0,1,.458.484l1.3,2.557c.153.317.4.348.763.348h.2v1.3h-.749c-.837,0-1.142-.1-1.494-.8l-1.464-2.874c-.274-.5-.473-.576-1.067-.576h-1.406v4.251h-1.525Z" transform="translate(-465.525 137.637)" fill="#747474"/>
  <path id="Tracciato_85" data-name="Tracciato 85" d="M618.225-88.407a1.822,1.822,0,0,0-1.816-1.953,2.217,2.217,0,0,0-2.272,1.953Zm-1.8-3.117a3.266,3.266,0,0,1,3.326,3.584c0,.2-.046.606-.046.606h-5.63a2.577,2.577,0,0,0,2.655,2.557,3.564,3.564,0,0,0,2.259-.893l.64,1.043a4.537,4.537,0,0,1-2.975,1.119,3.917,3.917,0,0,1-4.1-4.008,3.778,3.778,0,0,1,3.875-4.008" transform="translate(-461.033 138.984)" fill="#747474"/>
  <path id="Tracciato_86" data-name="Tracciato 86" d="M622.749-87.681c0-2-.99-2.572-2.18-2.572-1.343,0-2.105.967-2.105,2.526,0,1.588.839,2.676,2.226,2.676,1.069,0,2.059-.634,2.059-2.631m-2.41-3.843a2.572,2.572,0,0,1,2.471,1.195h.031v-.241c0-.454.243-.771.854-.771h1.435v1.256h-.611a.3.3,0,0,0-.335.3v5.778c0,2.526-1.937,3.493-3.891,3.493a6.1,6.1,0,0,1-2.638-.634l.5-1.18a4.9,4.9,0,0,0,2.1.513c1.343,0,2.441-.589,2.441-2.133v-.513a4.4,4.4,0,0,1,.031-.484H622.7a2.47,2.47,0,0,1-2.3,1.164c-2.136,0-3.448-1.708-3.448-3.917,0-2.194,1.238-3.827,3.387-3.827" transform="translate(-457.001 138.984)" fill="#747474"/>
  <path id="Tracciato_87" data-name="Tracciato 87" d="M625.832-84.777a2.656,2.656,0,0,0,2.653-2.754,2.637,2.637,0,0,0-2.653-2.722,2.634,2.634,0,0,0-2.64,2.722,2.653,2.653,0,0,0,2.64,2.754m0-6.747A4.012,4.012,0,0,1,630-87.531a4.026,4.026,0,0,1-4.165,4.023,4.013,4.013,0,0,1-4.149-4.023,4,4,0,0,1,4.149-3.993" transform="translate(-452.669 138.984)" fill="#747474"/>
  <path id="Tracciato_88" data-name="Tracciato 88" d="M627.43-91.433a.3.3,0,0,0-.335-.332h-.626v-1.256h1.465c.686,0,.977.287.977.967v8.124a.3.3,0,0,0,.335.332h.625v1.256h-1.464c-.686,0-.977-.287-.977-.969Z" transform="translate(-448.289 137.637)" fill="#747474"/>
  <path id="Tracciato_89" data-name="Tracciato 89" d="M631.682-84.686a2.325,2.325,0,0,0,2.059-2.435v-.258h-.381c-1.113,0-3.128.061-3.128,1.468a1.283,1.283,0,0,0,1.45,1.225m1.709-3.767h.335v-.076c0-1.347-.5-1.829-1.708-1.829-.366,0-1.267.089-1.267.589v.439h-1.387v-.756c0-1.256,1.921-1.438,2.669-1.438,2.5,0,3.172,1.3,3.172,3v3.254a.3.3,0,0,0,.335.332h.626v1.254h-1.389c-.686,0-.96-.332-.96-.876a3.262,3.262,0,0,1,.031-.454h-.031a2.636,2.636,0,0,1-2.456,1.512,2.407,2.407,0,0,1-2.625-2.329c0-2.466,3.356-2.617,4.653-2.617" transform="translate(-446.21 138.984)" fill="#747474"/>
  <path id="Tracciato_90" data-name="Tracciato 90" d="M633.038-84.621l3.952-4.84c.335-.408.64-.71.64-.71v-.03a6.836,6.836,0,0,1-.747.03h-2.105a.3.3,0,0,0-.335.332v.515h-1.358V-90.46c0-.68.291-.969.977-.969h5.521v.847l-3.965,4.857c-.322.378-.642.7-.642.7V-85a6.824,6.824,0,0,1,.747-.03h2.471a.3.3,0,0,0,.337-.332v-.515h1.341v1.134c0,.682-.289.969-.975.969h-5.858Z" transform="translate(-442.273 139.069)" fill="#747474"/>
  <path id="Tracciato_91" data-name="Tracciato 91" d="M639.329-93.021v1.527H638v-1.527Zm-1.356,4.614a.3.3,0,0,0-.335-.332h-.624V-90h1.448c.686,0,.977.287.977.967v5.1a.3.3,0,0,0,.335.332h.625v1.256h-1.45c-.686,0-.975-.287-.975-.969Z" transform="translate(-438.632 137.637)" fill="#747474"/>
  <path id="Tracciato_92" data-name="Tracciato 92" d="M643.423-84.777a2.654,2.654,0,0,0,2.653-2.754,2.636,2.636,0,0,0-2.653-2.722,2.634,2.634,0,0,0-2.64,2.722,2.653,2.653,0,0,0,2.64,2.754m0-6.747a4.012,4.012,0,0,1,4.165,3.993,4.026,4.026,0,0,1-4.165,4.023,4.013,4.013,0,0,1-4.149-4.023,4,4,0,0,1,4.149-3.993" transform="translate(-436.562 138.984)" fill="#747474"/>
  <path id="Tracciato_93" data-name="Tracciato 93" d="M645.037-89.754a.3.3,0,0,0-.335-.332h-.626v-1.256H645.5c.657,0,.977.287.977.847v.287a3.184,3.184,0,0,1-.031.439h.031a3.144,3.144,0,0,1,2.9-1.755c1.831,0,2.653.984,2.653,2.935v3.313a.3.3,0,0,0,.337.332h.623v1.256H651.52c-.686,0-.975-.287-.975-.969v-3.6c0-1.073-.214-1.92-1.45-1.92a2.5,2.5,0,0,0-2.44,1.875,3.116,3.116,0,0,0-.136,1.03v3.584h-1.481Z" transform="translate(-432.166 138.984)" fill="#747474"/>
  <path id="Tracciato_94" data-name="Tracciato 94" d="M654.848-88.407a1.822,1.822,0,0,0-1.816-1.953,2.217,2.217,0,0,0-2.272,1.953Zm-1.8-3.117a3.265,3.265,0,0,1,3.326,3.584c0,.2-.046.606-.046.606H650.7a2.577,2.577,0,0,0,2.653,2.557,3.565,3.565,0,0,0,2.259-.893l.642,1.043a4.541,4.541,0,0,1-2.975,1.119,3.918,3.918,0,0,1-4.105-4.008,3.778,3.778,0,0,1,3.875-4.008" transform="translate(-427.5 138.984)" fill="#747474"/>
  <path id="Tracciato_95" data-name="Tracciato 95" d="M660.475-84.73c1.218,0,2.226-1,2.226-2.739,0-1.662-.9-2.737-2.182-2.737-1.144,0-2.226.8-2.226,2.752,0,1.362.747,2.724,2.182,2.724m-3.617-4.992a.3.3,0,0,0-.335-.332H655.9V-91.31h1.389c.686,0,.946.287.946.771,0,.226-.015.408-.015.408h.031a2.756,2.756,0,0,1,2.563-1.362c2.075,0,3.4,1.634,3.4,4.008,0,2.437-1.494,4.01-3.508,4.01a2.67,2.67,0,0,1-2.366-1.225h-.029s.029.272.029.665v3.4h-1.479Z" transform="translate(-421.341 139.013)" fill="#747474"/>
  <path id="Tracciato_96" data-name="Tracciato 96" d="M666.5-88.375a1.824,1.824,0,0,0-1.816-1.953,2.22,2.22,0,0,0-2.274,1.953Zm-1.8-3.117a3.266,3.266,0,0,1,3.326,3.584c0,.2-.046.606-.046.606h-5.628A2.575,2.575,0,0,0,665-84.745a3.565,3.565,0,0,0,2.259-.893l.64,1.043a4.542,4.542,0,0,1-2.975,1.119,3.918,3.918,0,0,1-4.1-4.008,3.778,3.778,0,0,1,3.875-4.008" transform="translate(-416.833 139.013)" fill="#747474"/>
  <path id="Tracciato_97" data-name="Tracciato 97" d="M666.065-89.765a.3.3,0,0,0-.335-.332H665.1v-1.256h1.4c.672,0,.992.272.992.891v.484a4.384,4.384,0,0,1-.031.53h.031a2.646,2.646,0,0,1,2.44-2,3.023,3.023,0,0,1,.4.03v1.451a2.213,2.213,0,0,0-.443-.046,2.338,2.338,0,0,0-2.167,1.8,4.6,4.6,0,0,0-.184,1.377v3.13h-1.479Z" transform="translate(-412.912 139.056)" fill="#747474"/>
  <path id="Tracciato_98" data-name="Tracciato 98" d="M671.447-91.688h-.992v-1.3h6.331c.688,0,.977.287.977.967v1.349h-1.389v-.682a.3.3,0,0,0-.335-.332h-3.067v3.343h3.768v1.3h-3.768v3.1a.3.3,0,0,0,.337.332h3.142a.3.3,0,0,0,.335-.332v-.68h1.4v1.347c0,.68-.289.967-.977.967h-4.789c-.688,0-.977-.287-.977-.967Z" transform="translate(-408.011 137.666)" fill="#747474"/>
  <path id="Tracciato_99" data-name="Tracciato 99" d="M675.813-89.722a.3.3,0,0,0-.337-.332h-.625V-91.31h1.419c.655,0,.977.287.977.845v.289a3.19,3.19,0,0,1-.031.439h.031a3.139,3.139,0,0,1,2.9-1.755c1.829,0,2.653.984,2.653,2.935v3.313a.3.3,0,0,0,.335.332h.627v1.256H682.3c-.686,0-.975-.287-.975-.969v-3.6c0-1.073-.215-1.92-1.45-1.92a2.5,2.5,0,0,0-2.44,1.877,3.076,3.076,0,0,0-.138,1.028v3.584h-1.479Z" transform="translate(-403.986 139.013)" fill="#747474"/>
  <path id="Tracciato_100" data-name="Tracciato 100" d="M685.623-88.375a1.823,1.823,0,0,0-1.816-1.953,2.218,2.218,0,0,0-2.272,1.953Zm-1.8-3.117a3.265,3.265,0,0,1,3.326,3.584c0,.2-.046.606-.046.606h-5.628a2.576,2.576,0,0,0,2.653,2.557,3.564,3.564,0,0,0,2.258-.893l.64,1.043a4.534,4.534,0,0,1-2.973,1.119,3.918,3.918,0,0,1-4.105-4.008,3.778,3.778,0,0,1,3.875-4.008" transform="translate(-399.32 139.013)" fill="#747474"/>
  <path id="Tracciato_101" data-name="Tracciato 101" d="M685.194-89.765a.3.3,0,0,0-.337-.332h-.625v-1.256h1.4c.67,0,.992.272.992.891v.484a4.118,4.118,0,0,1-.033.53h.033a2.644,2.644,0,0,1,2.441-2,3.021,3.021,0,0,1,.4.03v1.451a2.213,2.213,0,0,0-.443-.046,2.338,2.338,0,0,0-2.167,1.8,4.6,4.6,0,0,0-.184,1.377v3.13h-1.479Z" transform="translate(-395.396 139.056)" fill="#747474"/>
  <path id="Tracciato_102" data-name="Tracciato 102" d="M693.23-87.649c0-2-.99-2.572-2.18-2.572-1.343,0-2.105.967-2.105,2.526,0,1.588.839,2.678,2.226,2.678,1.069,0,2.059-.636,2.059-2.633m-2.41-3.843a2.572,2.572,0,0,1,2.471,1.195h.031v-.241c0-.454.243-.771.854-.771h1.435v1.256H695a.3.3,0,0,0-.335.3v5.778c0,2.526-1.937,3.493-3.891,3.493a6.1,6.1,0,0,1-2.638-.634l.5-1.18a4.895,4.895,0,0,0,2.1.513c1.343,0,2.44-.589,2.44-2.131v-.515a4.454,4.454,0,0,1,.031-.484h-.031a2.47,2.47,0,0,1-2.3,1.164c-2.136,0-3.448-1.708-3.448-3.917,0-2.194,1.237-3.827,3.387-3.827" transform="translate(-392.464 139.013)" fill="#747474"/>
  <path id="Tracciato_103" data-name="Tracciato 103" d="M694.41-92.989v1.527h-1.327v-1.527Zm-1.356,4.614a.3.3,0,0,0-.335-.332h-.627v-1.256h1.45c.686,0,.975.287.975.967v5.1a.3.3,0,0,0,.337.332h.624v1.256h-1.45c-.686,0-.975-.287-.975-.969Z" transform="translate(-388.199 137.666)" fill="#747474"/>
  <path id="Tracciato_104" data-name="Tracciato 104" d="M697.305-84.655a2.325,2.325,0,0,0,2.059-2.435v-.258h-.381c-1.113,0-3.128.061-3.128,1.468a1.283,1.283,0,0,0,1.45,1.225m1.709-3.767h.335V-88.5c0-1.347-.5-1.829-1.709-1.829-.366,0-1.266.091-1.266.589v.439h-1.389v-.756c0-1.256,1.923-1.438,2.67-1.438,2.5,0,3.172,1.3,3.172,3v3.252a.3.3,0,0,0,.335.334h.626v1.254H700.4c-.686,0-.96-.332-.96-.876a3.25,3.25,0,0,1,.031-.454h-.031a2.636,2.636,0,0,1-2.456,1.512,2.407,2.407,0,0,1-2.624-2.329c0-2.466,3.356-2.617,4.653-2.617" transform="translate(-386.121 139.012)" fill="#747474"/>
  <path id="Tracciato_105" data-name="Tracciato 105" d="M705.345-87.86A1.745,1.745,0,0,0,707.19-89.8a1.7,1.7,0,0,0-1.814-1.89H703.36v3.827Zm-3.509-3.827h-.992v-1.3h4.7a2.983,2.983,0,0,1,3.218,3.13,2.747,2.747,0,0,1-1.937,2.828V-87a1.18,1.18,0,0,1,.458.484l1.3,2.557c.153.317.4.348.762.348h.2v1.3h-.747c-.839,0-1.144-.1-1.494-.8l-1.465-2.874c-.274-.5-.471-.576-1.067-.576h-1.4v4.251h-1.525Z" transform="translate(-380.185 137.666)" fill="#747474"/>
  <path id="Tracciato_106" data-name="Tracciato 106" d="M711.425-88.375a1.823,1.823,0,0,0-1.816-1.953,2.218,2.218,0,0,0-2.272,1.953Zm-1.8-3.117a3.265,3.265,0,0,1,3.326,3.584c0,.2-.046.606-.046.606h-5.628a2.576,2.576,0,0,0,2.653,2.557,3.564,3.564,0,0,0,2.258-.893l.642,1.043a4.542,4.542,0,0,1-2.975,1.119,3.918,3.918,0,0,1-4.105-4.008,3.778,3.778,0,0,1,3.875-4.008" transform="translate(-375.693 139.013)" fill="#747474"/>
  <path id="Tracciato_107" data-name="Tracciato 107" d="M711.048-89.223h-1.006V-90.4h1.038v-2.1h1.446v2.1h1.847v1.178h-1.847v3.51a1.519,1.519,0,0,0,1.634,1.723,1.912,1.912,0,0,0,.351-.028v1.3a4.057,4.057,0,0,1-.519.028,2.647,2.647,0,0,1-2.944-2.857Z" transform="translate(-371.763 138.103)" fill="#747474"/>
  <path id="Tracciato_108" data-name="Tracciato 108" d="M715.2-92.989v1.527h-1.328v-1.527Zm-1.358,4.614a.3.3,0,0,0-.335-.332h-.624v-1.256h1.448c.686,0,.977.287.977.967v5.1a.3.3,0,0,0,.335.332h.625v1.256h-1.448c-.688,0-.977-.287-.977-.969Z" transform="translate(-369.166 137.666)" fill="#747474"/>
  <path id="Tracciato_109" data-name="Tracciato 109" d="M722.954-88.375a1.821,1.821,0,0,0-1.814-1.953,2.218,2.218,0,0,0-2.272,1.953Zm-1.8-3.117a3.265,3.265,0,0,1,3.326,3.584c0,.2-.046.606-.046.606h-5.628a2.575,2.575,0,0,0,2.653,2.557,3.564,3.564,0,0,0,2.259-.893l.64,1.043a4.534,4.534,0,0,1-2.973,1.119,3.918,3.918,0,0,1-4.105-4.008,3.778,3.778,0,0,1,3.875-4.008" transform="translate(-365.134 139.013)" fill="#747474"/>
  <path id="Tracciato_110" data-name="Tracciato 110" d="M730.127-86.652,728.951-89.9c-.2-.558-.427-1.5-.427-1.5h-.03s-.213.938-.412,1.5l-1.174,3.252Zm-6.5,3.041h.214c.274,0,.412-.061.5-.332l3.372-9.045h1.6l3.373,9.045a.438.438,0,0,0,.5.332h.23v1.3h-.854c-.764,0-1.008-.18-1.251-.878l-.808-2.194h-3.967l-.808,2.194a1.082,1.082,0,0,1-1.266.878h-.839Z" transform="translate(-359.324 137.666)" fill="#747474"/>
  <path id="Tracciato_111" data-name="Tracciato 111" d="M729.964-89.722a.3.3,0,0,0-.335-.332H729V-91.31h1.419c.672,0,.977.287.977.845v.289c0,.241-.015.439-.015.439h.031a2.991,2.991,0,0,1,2.638-1.755,2.1,2.1,0,0,1,2.32,1.74h.031a3.106,3.106,0,0,1,2.745-1.74c1.74,0,2.548.984,2.548,2.935v3.313a.3.3,0,0,0,.335.332h.625v1.256h-1.464c-.688,0-.977-.287-.977-.969V-88.24c0-1.073-.213-1.92-1.356-1.92a2.427,2.427,0,0,0-2.167,1.966,4.347,4.347,0,0,0-.122,1.043v3.5h-1.481V-88.24c0-1-.151-1.92-1.326-1.92a2.449,2.449,0,0,0-2.213,2.027,4.123,4.123,0,0,0-.105.982v3.5h-1.481Z" transform="translate(-354.402 139.013)" fill="#747474"/>
  <path id="Tracciato_112" data-name="Tracciato 112" d="M741.027-83.385c1.218,0,2.226-1,2.226-2.737,0-1.664-.9-2.737-2.2-2.737-1.143,0-2.211.8-2.211,2.752,0,1.362.716,2.722,2.182,2.722M737.395-91.4a.3.3,0,0,0-.335-.332h-.627v-1.256H737.9c.686,0,.977.287.977.967v2.5a6.3,6.3,0,0,1-.031.636h.031a2.778,2.778,0,0,1,2.486-1.256c2.075,0,3.385,1.634,3.385,4.008,0,2.435-1.479,4.01-3.508,4.01a2.781,2.781,0,0,1-2.425-1.288h-.031a5.078,5.078,0,0,1,.031.577v.528h-1.42Z" transform="translate(-347.597 137.666)" fill="#747474"/>
  <path id="Tracciato_113" data-name="Tracciato 113" d="M743.6-92.989v1.527h-1.328v-1.527Zm-1.36,4.614a.3.3,0,0,0-.333-.332h-.625v-1.256h1.448c.686,0,.977.287.977.967v5.1a.3.3,0,0,0,.333.332h.627v1.256h-1.448c-.69,0-.979-.287-.979-.969Z" transform="translate(-343.156 137.666)" fill="#747474"/>
  <path id="Tracciato_114" data-name="Tracciato 114" d="M749.218-88.375a1.821,1.821,0,0,0-1.814-1.953,2.218,2.218,0,0,0-2.272,1.953Zm-1.8-3.117a3.266,3.266,0,0,1,3.326,3.584c0,.2-.046.606-.046.606h-5.628a2.575,2.575,0,0,0,2.653,2.557,3.565,3.565,0,0,0,2.259-.893l.642,1.043a4.542,4.542,0,0,1-2.975,1.119,3.918,3.918,0,0,1-4.105-4.008,3.778,3.778,0,0,1,3.875-4.008" transform="translate(-341.085 139.013)" fill="#747474"/>
  <path id="Tracciato_115" data-name="Tracciato 115" d="M748.791-89.722a.3.3,0,0,0-.335-.332h-.627V-91.31h1.42c.655,0,.977.287.977.845v.289a3.014,3.014,0,0,1-.033.439h.033a3.137,3.137,0,0,1,2.9-1.755c1.831,0,2.655.984,2.655,2.935v3.313a.3.3,0,0,0,.335.332h.626v1.256h-1.464c-.688,0-.977-.287-.977-.969v-3.6c0-1.073-.215-1.92-1.448-1.92a2.5,2.5,0,0,0-2.443,1.877,3.084,3.084,0,0,0-.136,1.028v3.584h-1.481Z" transform="translate(-337.162 139.013)" fill="#747474"/>
  <path id="Tracciato_116" data-name="Tracciato 116" d="M753.83-89.223h-1.008V-90.4h1.038v-2.1h1.448v2.1h1.847v1.178h-1.847v3.51a1.519,1.519,0,0,0,1.634,1.723,1.792,1.792,0,0,0,.35-.03v1.3a3.82,3.82,0,0,1-.521.03,2.647,2.647,0,0,1-2.942-2.857Z" transform="translate(-332.589 138.103)" fill="#747474"/>
  <path id="Tracciato_117" data-name="Tracciato 117" d="M761.4-88.375a1.821,1.821,0,0,0-1.814-1.953,2.218,2.218,0,0,0-2.272,1.953Zm-1.8-3.117a3.266,3.266,0,0,1,3.326,3.584c0,.2-.046.606-.046.606h-5.628a2.575,2.575,0,0,0,2.653,2.557,3.556,3.556,0,0,0,2.257-.893l.644,1.043a4.543,4.543,0,0,1-2.975,1.119,3.918,3.918,0,0,1-4.1-4.008,3.778,3.778,0,0,1,3.875-4.008" transform="translate(-329.929 139.013)" fill="#747474"/>
  <path id="Tracciato_118" data-name="Tracciato 118" d="M806.619-109.822a119.455,119.455,0,0,0-13.189.188c-13.559.86-30.258,3.531-48.6,6.941-20.8,3.871-39.6,4.853-53.955,3.936-3.008-.194-5.831-.471-8.4-.821a100.283,100.283,0,0,1-10.9-1.706,91.752,91.752,0,0,1-10.722-3.282.324.324,0,0,0-.393.116.239.239,0,0,0,.14.334,99.811,99.811,0,0,0,10.417,3.81,118.56,118.56,0,0,0,16.609,3.618,121.735,121.735,0,0,0,12.4,1.333,197.381,197.381,0,0,0,44.93-3.018c23.39-4.1,42.3-7.011,56.6-7.045a142.417,142.417,0,0,1,21.237,1.176,36.2,36.2,0,0,0,5.551.416,1.916,1.916,0,0,0,.841-.226.441.441,0,0,0,.347-.465c-.13-1.309-9.324-5.022-22.911-5.305" transform="translate(-417.191 122.43)" fill="#0098c5"/>
  <path id="Tracciato_119" data-name="Tracciato 119" d="M782.184-103.975a88.589,88.589,0,0,0-10.849.11c-10.237.652-22.743,2.633-36.4,5.159-16.682,3.083-30.493,3.8-40.708,3.166h0c-2.515-.161-4.841-.408-6.9-.728a110.528,110.528,0,0,1-15.693-3.491.333.333,0,0,0-.379.122.238.238,0,0,0,.125.327c2.31,1.183,13.787,4.823,21.082,5.93a92.359,92.359,0,0,0,10.094,1.111,146.487,146.487,0,0,0,32.514-2.112c14.9-2.543,27.321-4.487,37.172-5.03,1.684-.095,3.322-.15,4.872-.165a122,122,0,0,1,15.511.617c3.278.291,5.253.441,5.987,0A.5.5,0,0,0,799-99.5c-.147-1.257-6.672-4.15-16.814-4.471" transform="translate(-407.304 127.678)" fill="#00a475"/>
  <path id="Tracciato_120" data-name="Tracciato 120" d="M698.463-98.737C714.5-97.076,734-98.8,755.8-102.665c24.423-4.34,44.991-7.638,61.581-8.6,3.343-.2,6.561-.3,9.567-.3a165.194,165.194,0,0,1,26.982,1.768,37.23,37.23,0,0,0,6.023.558,1.667,1.667,0,0,0,.765-.213.393.393,0,0,0,.318-.416c-.094-1.214-11.54-5.86-29.026-6.107a150.058,150.058,0,0,0-15.515.26c-16.877,1.069-37.771,4.431-60.826,8.721-25.526,4.758-45.875,6.111-63.581,4.982a92.983,92.983,0,0,1-33.645-8.69c-2.682-1.218-5.073-2.5-6.8-3.486a21.66,21.66,0,0,1-2.745-1.77c-.286-.245-.286.348-.322.331a18.886,18.886,0,0,0,2.768,2.08c1.715,1.1,4,2.5,6.3,3.7,7.354,3.865,17.7,8.734,40.813,11.108" transform="translate(-428.041 116.908)" fill="#f07400"/>
  <path id="Tracciato_121" data-name="Tracciato 121" d="M554.678-113.3c.377-.029,1.935-.029,2.314,0l.362,1.746a15.633,15.633,0,0,1,2.446.387l.885-1.559c.378.1,1.853.566,2.2.712l-.2,1.77a18.614,18.614,0,0,1,2.222,1.113l1.308-1.208c.339.2,1.578,1.117,1.879,1.36l-.741,1.616a18.776,18.776,0,0,1,1.757,1.749l1.621-.752c.264.3,1.167,1.542,1.368,1.867l-1.216,1.311a16.65,16.65,0,0,1,1.122,2.2l1.8-.213c.132.351.607,1.81.7,2.186l-1.569.887a14.957,14.957,0,0,1,.393,2.426l1.77.346c.025.382.025,1.92,0,2.3l-1.77.361a17.668,17.668,0,0,1-.381,2.431l1.558.885c-.086.365-.571,1.812-.7,2.173l-1.8-.186a18.864,18.864,0,0,1-1.122,2.186L572.1-83.9c-.2.308-1.1,1.552-1.351,1.848l-1.647-.739a16.96,16.96,0,0,1-1.761,1.749l.755,1.618c-.3.228-1.54,1.142-1.866,1.347l-1.341-1.212a19.129,19.129,0,0,1-2.2,1.126l.2,1.77c-.351.135-1.826.6-2.2.712l-.9-1.559a19.076,19.076,0,0,1-2.448.391l-.349,1.746c-.379.013-1.927.013-2.314,0l-.368-1.759a17.98,17.98,0,0,1-2.444-.378l-.883,1.559c-.381-.108-1.837-.577-2.2-.712l.2-1.784a17.789,17.789,0,0,1-2.22-1.113l-1.326,1.212c-.31-.205-1.567-1.1-1.864-1.347l.743-1.637a21.232,21.232,0,0,1-1.761-1.73l-1.64.739c-.224-.3-1.134-1.54-1.353-1.848l1.222-1.328a19.07,19.07,0,0,1-1.142-2.188l-1.784.2c-.136-.348-.607-1.808-.715-2.173l1.571-.885a18.8,18.8,0,0,1-.379-2.431l-1.778-.361c-.008-.376-.008-1.915,0-2.3l1.778-.359a17.462,17.462,0,0,1,.379-2.428l-1.571-.872c.107-.376.579-1.823.715-2.186l1.8.2a16.223,16.223,0,0,1,1.123-2.186l-1.222-1.311c.205-.325,1.128-1.569,1.353-1.856l1.657.724a18.48,18.48,0,0,1,1.743-1.732l-.743-1.616c.3-.243,1.554-1.159,1.864-1.36l1.343,1.208a16.621,16.621,0,0,1,2.2-1.113l-.2-1.77c.368-.146,1.824-.615,2.193-.712l.906,1.559a14.782,14.782,0,0,1,2.446-.387l.354-1.746h0" transform="translate(-530.621 119.376)" fill="#747474"/>
  <path id="Tracciato_122" data-name="Tracciato 122" d="M552.653-110.2l-3.136,8.878-9.5.226,7.55,5.7-2.715,9.036,7.8-5.351,7.822,5.351-2.72-9.009,7.552-5.731-9.486-.215Z" transform="translate(-527.449 122.188)" fill="#fff"/>
  <path id="Tracciato_123" data-name="Tracciato 123" d="M541.132-103.726a14.071,14.071,0,0,1,9.479-6.747l-.4,9.4Zm1.776,16.339A13.978,13.978,0,0,1,539.36-98.43l8.9,3.286Zm16.216,3.364a14.258,14.258,0,0,1-11.685-.055l5.908-7.378Zm8.237-14.246a13.9,13.9,0,0,1-3.667,11l-5.247-7.845ZM556.24-110.444a14.069,14.069,0,0,1,9.421,6.867l-9.151,2.519Z" transform="translate(-528.14 121.94)" fill="#fff"/>
  <path id="Tracciato_124" data-name="Tracciato 124" d="M553.092-109.463l-3.071,8.692-.142,0-9.153.217,7.276,5.5.115.084-2.665,8.853,7.525-5.155.115-.082.119.082,7.54,5.155-2.663-8.821.111-.085,7.274-5.52-9.138-.209-.14,0Zm-3.37,8.287,3.37-9.53,3.4,9.545,9.582.217.59.013-8.1,6.141,2.916,9.674-8.385-5.746-8.372,5.746,2.916-9.7-8.1-6.118.586-.013Z" transform="translate(-527.886 121.731)" fill="#a3a3a3"/>
  <path id="Tracciato_125" data-name="Tracciato 125" d="M573.393-78.538c-.05.023-.761-.374-.99-.169a3.528,3.528,0,0,0-.565.7l.121,1.124a1.911,1.911,0,0,1-.747,1.563,4.745,4.745,0,0,0-1.153,1.6c-.1.363-.5.756-1.2,1.185a1.8,1.8,0,0,0-.49-.579c-.038-.082-.121-.114-.243-.089a29.124,29.124,0,0,0-4.2,1.82,5.8,5.8,0,0,0-1.561,1.613h-1.2a6.573,6.573,0,0,1-1.038-.758c-.266-.205-.738-.137-1.408.211a2.425,2.425,0,0,0-1.9.4,1.264,1.264,0,0,1-.86.084l-1.5-1.605q-4.652-1.949-5.084-1.734a1.633,1.633,0,0,0-.674.79,5.835,5.835,0,0,1-1.383-1.155l-.946-1.064a2.64,2.64,0,0,1-.862-2.19l.161-.936a.423.423,0,0,0-.069-.332,1.773,1.773,0,0,0-.826-.437c-.04-.013-.172-.059-.326.484a15.162,15.162,0,0,1-.994-1.377,6.035,6.035,0,0,0,1.04-2.162,12.134,12.134,0,0,0,.446-2.876.682.682,0,0,1,.115-.173c.479-.357,1.08-3.74.946-4.551-.063-.327-.136-.49-.232-.5a.362.362,0,0,0-.262.074l.186-.363c.1-.262.1-.437,0-.517a1.648,1.648,0,0,0-1.092.186,6.608,6.608,0,0,0-.443-1.582c-.044-.095-.174.006-.182.009-.856.515-1.234,1.645-1.54,3.043l-.249.222a11.356,11.356,0,0,0-2.352,4.741,5.109,5.109,0,0,1-.452-1.225,2.216,2.216,0,0,1-.155-1.079.583.583,0,0,0-.151-.79,8.4,8.4,0,0,1-.8-2.735A6.884,6.884,0,0,1,538.8-91.6a23.141,23.141,0,0,1,1.592-3.142,2.027,2.027,0,0,1,.45-.418c1.061-.262,5.772-6.318,5.28-9.135a23.356,23.356,0,0,0,2.193-4.084l.262-.084.3-.122c1.021-.4,1.893-.836,2.693-1.2l1.232-.653a10.076,10.076,0,0,0,2.448-1.487,3.374,3.374,0,0,0,1.322-2.217c-.147-.184-.565-.283-1.259-.3a2.073,2.073,0,0,0,.586-1.276c-.27-.367-1.065-.429-2.395-.184a10.78,10.78,0,0,0-3.643,1.611A13.134,13.134,0,0,0,547-111.843a13.57,13.57,0,0,0-2.038,2.99l.609-1.4q.463-1,.985-2.336a1.436,1.436,0,0,0,.015-.914c-.094-.177-.291-.23-.6-.15a6.022,6.022,0,0,0-1.776,1.275,14.474,14.474,0,0,0-2.5,3.525,24.639,24.639,0,0,0-1.487,3.315,5.465,5.465,0,0,0-.059-2.34q-.152-.4-.676-.213a4.26,4.26,0,0,0-.979,1c-.328.452-.646.881-.95,1.3a15.984,15.984,0,0,0-1.086,1.778,13.889,13.889,0,0,0-1.1,2.733,21.655,21.655,0,0,0-.722,4.19,12.007,12.007,0,0,0,.247,3.584,13.433,13.433,0,0,0,.979,2.826,2.188,2.188,0,0,0,.916,1.066,22.6,22.6,0,0,1,.738,2.22,2.994,2.994,0,0,1,.216,1.107.533.533,0,0,0,.2.53,1.109,1.109,0,0,1,.379.606,12.815,12.815,0,0,0,1.077,2.7,7.353,7.353,0,0,0-.121,1.341q-1.471-4.225-2.391-6.38-1.782-3.923-2.791-3.582a1.012,1.012,0,0,0-.613.876c-.019.182-.019.648,0,1.4a20.2,20.2,0,0,0,.217,2.369,15.976,15.976,0,0,0,3.157,6.747l2.236,2.612a5.725,5.725,0,0,0,1.285.988,1.551,1.551,0,0,0,1.134.169,21.742,21.742,0,0,0,1.931,2.549c.489.75,1,1.105,1.532,1.064a1.081,1.081,0,0,0,1.01.728l.46-.061a15.609,15.609,0,0,0,1.715,1.459l-.577,1.639a24.623,24.623,0,0,1-2.824.245c-.795-.566-1.916-1.339-3.37-2.31l-.088-1.822A2.6,2.6,0,0,1,541.62-74c.065-.344-.128-.659-.578-.94a2.637,2.637,0,0,0-1.439-.4c-.126.04-.2.154-.216.331V-74l-2.914.061a.821.821,0,0,0-.655.3c-.176.205-.182.6-.015,1.216a1.794,1.794,0,0,1-.029.577,7.608,7.608,0,0,1-1.138,2.369c-.079.144-.046.353.107.638a7.017,7.017,0,0,0,1.151,1.335,9.1,9.1,0,0,0,1.213.974c.536.388,1.492.971,2.86,1.759A40.16,40.16,0,0,0,544.6-62.4q.463.031,6.126-.821l.036.336q-1.629,1.214-2.086,1c-.433.038-.563.355-.4.942a1.044,1.044,0,0,0,.674.547l.4.452,1.136.672a2.124,2.124,0,0,0,1.222,0,1.25,1.25,0,0,0,.738-.942l1.348-1.337.881-.669a1.793,1.793,0,0,0,1.351-.727c.04-.327.134-.528.282-.61l1.071-.731c.042-.1.481.072,1.314.52a1.649,1.649,0,0,0,1.077-.059l.795-.462q1.066.248,3.768,2.648a.849.849,0,0,0,.337.633,2.094,2.094,0,0,0,1.165.462l.431.786.427.154a2.584,2.584,0,0,0,1.776-.671l.674-.207c.349-.266.5-.53.462-.794l-.274-.274-.586-.152a11.742,11.742,0,0,1-2.234-1.4l-.494-.363q3.339.57,8.3.914a2.351,2.351,0,0,0,1.64-.625q1.031-.749,6.2-4.392a6.591,6.591,0,0,0,1.226-1.882,3.769,3.769,0,0,1-.814-1.214A5.963,5.963,0,0,1,582.131-72a2.113,2.113,0,0,1-.031-.929.807.807,0,0,0-.276-.773.991.991,0,0,0-.7-.275,11.56,11.56,0,0,0-2.2.032c-.391-.04-.617-.131-.672-.272l.031-.729c.055-.327-.031-.465-.278-.427a3.566,3.566,0,0,0-1.63.671.613.613,0,0,0,.031.91.912.912,0,0,1,.341.7,25.02,25.02,0,0,1-.341,2.7,23.34,23.34,0,0,1-3.029,2.16,7.733,7.733,0,0,1-2.877-.182,2.616,2.616,0,0,1-.711-1.455c.511-.31,1.057-.671,1.628-1.1a5.942,5.942,0,0,0,.981-.224c.259-.1.4-.348.4-.748a1.019,1.019,0,0,0,.581-.671l1.78-2.122a3.518,3.518,0,0,1,1.866-.86,7.329,7.329,0,0,0,3.188-1.36c.207-.224.207-.539,0-.942a9.837,9.837,0,0,0,1.9-1.884,1.736,1.736,0,0,0,.243-1.611,5.728,5.728,0,0,0,1.381-2.31,4.948,4.948,0,0,0-.033-1.639,3.823,3.823,0,0,0,.814-.623,1.059,1.059,0,0,0,.224-.718.971.971,0,0,0-.335-.76,1.838,1.838,0,0,0,.216-2.245c.165-1.1.052-1.782-.331-2.065-.412-.283-.91-.192-1.506.275-.351-.184-.814-.011-1.408.513a.888.888,0,0,0,.025-.7,2.112,2.112,0,0,0,1.032-.8,3.222,3.222,0,0,0,.226-1.385,6.987,6.987,0,0,1,1.075-2.065q.675-1.49-.95-1.033a2.1,2.1,0,0,0,.887-1.366,2.392,2.392,0,0,0-.456-1.4c-.144-.327-.358-.382-.646-.182a1.764,1.764,0,0,0,.169-.729,5.6,5.6,0,0,0-.567-1.793c-.061-1.195-.347-1.692-.856-1.487a4.831,4.831,0,0,0-.615-1.793c-.489-.731-.877-.921-1.165-.577-.8-1.174-1.538-1.664-2.236-1.457a2.259,2.259,0,0,0-.521-1.368,3.91,3.91,0,0,0-.674-1.613c-.37-.142-.623.063-.766.608a4.973,4.973,0,0,0-.425-1.4,1.173,1.173,0,0,0-1.071-.758.917.917,0,0,0-.525.089,1.668,1.668,0,0,0-.826-.3c-.7-.727-1.329-.792-1.9-.184l-.09-.64c-.209-.745-.617-.912-1.23-.486a9.294,9.294,0,0,0-2.573-2.034c-.6-.2-.983-.154-1.165.154a2.057,2.057,0,0,0-.981-.579c-.343-.084-.674-.173-.979-.274-.471-.023-.676.236-.615.762a2.932,2.932,0,0,0-1.517.372.735.735,0,0,0-.213.9,1.734,1.734,0,0,0,.9.944.892.892,0,0,0-.153.669c.017.3.345.557.979.758a2.9,2.9,0,0,0,1.379.03.65.65,0,0,0,.49.879,1.956,1.956,0,0,0,2.2.46l-.09.577,1.2.484a1.364,1.364,0,0,0,.8,1.214l.469.2a1.733,1.733,0,0,0-.548.435.461.461,0,0,0,.276.792,11.589,11.589,0,0,0,1.529.095,1.748,1.748,0,0,0,.2.566,4.647,4.647,0,0,0,.663.834,4.8,4.8,0,0,0,1.487.933c-.033.038-.182.433-.316.794a1.771,1.771,0,0,0,.071,1.55c-.071-.036-.36.169-.464.325-.387.587.443,1.427.571,1.715a1.274,1.274,0,0,0-.412.2c-.286.2-.184,1.206.624,1.379a7.834,7.834,0,0,1,1.588,1.1c.092.095.353.581.724,1.066.2.258.406.691.893.7a16.447,16.447,0,0,0,2.042,4.1,7.852,7.852,0,0,1,1.088,1.651,4.92,4.92,0,0,0-.086.944,14.843,14.843,0,0,1-.533,2.69c-.87-.416-1.011.154-1.142.712.023-.032-.4-.084-.456.108.032-.338-.527-.634-.778-.454-.01.008-.28.194-.448.321-.055.042-.1-.277-.126-.519a2.791,2.791,0,0,1,.065-.95c.015-.036.226-.281.351-.5a5.354,5.354,0,0,0-.249-2.908.781.781,0,0,0-.469-.513c-.069-.027-.529,0-.611.348-.032-.2-.351-.315-.592-.368-.668-.158-1.381,1.117-1.308,2.3-.483-.384-1.128-.26-1.048.4.109.927,1.515,2.579,1.559,3.328-.419-.374-1.373-.386-1.373.524a2.971,2.971,0,0,0,.316.938c-.193.969.929,1.673,1.849,2.589-.017.427.13.433.27.6-.167.256-1.194,1.865-1.207,1.9m-31.984-3.486.672.853a9.112,9.112,0,0,1-.184-2.069Zm-2.668-17.532a16.9,16.9,0,0,0-.582,2.494l.828-2.188ZM538.5-94.63l-.213.881-.157,1.216.429-1.43.615-1.641-.494.091Zm3.1,15.524.95,1.427.086-.18-.854-1.426Zm-4.718-12.153.121.243c.144-.916.318-2.177.519-3.8q-.825,3.277-.64,3.556m6.494,14.58-.337.425.521.7.492.638a1.984,1.984,0,0,0,.732.636l-.157-.45-.452-.824Zm-3.4-22.119-.642,1.981.243.023a15.775,15.775,0,0,1,.981-2.122Z" transform="translate(-533.457 116.51)" fill="#fff"/>
  <path id="Tracciato_126" data-name="Tracciato 126" d="M554.205-96.489c.262,0,.625.131.534.346s-.19.583-.4.612-.605-.266-.605-.522a.446.446,0,0,1,.471-.435" transform="translate(-514.888 134.518)" fill="#747474"/>
  <path id="Tracciato_127" data-name="Tracciato 127" d="M552.375-86.59l2.05-1.244.123-.762a1.16,1.16,0,0,0,1.2.243,1.6,1.6,0,0,0,.874-.729,16.43,16.43,0,0,1,1.213-1.489,6.139,6.139,0,0,1,1.653-1.335,1.39,1.39,0,0,1,.4-1.4l1.012-.914c-.224-.83-.1-1.415.393-1.763a2.059,2.059,0,0,1,.036-1.428q-1.256,2.675-1.58,3.267c-.213.4-.385.566-.5.5s-.174-.386-.155-.969l-.333.574.029,1.066a14.866,14.866,0,0,1-2.879,3.155,2.032,2.032,0,0,0-.676.46c-.3.123-.385.047-.242-.213a2.325,2.325,0,0,1,.734-.519A2.894,2.894,0,0,0,556.7-91.3,22.072,22.072,0,0,1,558.807-95a27.752,27.752,0,0,1,2.3-3.07l.031-.76c-.387.408-.86.9-1.414,1.489a19.991,19.991,0,0,0-1.56,1.9,20.709,20.709,0,0,0-1.375,2.2c-.266.2-.561.122-.889-.245l.092.762-.035.727a2.9,2.9,0,0,1-.7,1.233,5.719,5.719,0,0,0-.919,1.256c-.226.614-1.044,1.28-2.454,2.01l-.366.306a3.61,3.61,0,0,1-.153,1.033Z" transform="translate(-517.058 132.409)" fill="#747474"/>
  <path id="Tracciato_128" data-name="Tracciato 128" d="M550.712-90.809c1.084-.4,1.684-.75,1.806-1.03.14-.566.128-.862-.029-.879a1.469,1.469,0,0,0-1.075.3.657.657,0,0,0-.368.821l.149.486h-.149l-.276-.427-1.071.606Z" transform="translate(-518.582 137.902)" fill="#747474"/>
  <path id="Tracciato_129" data-name="Tracciato 129" d="M541.416-85.952l.307.245a2.478,2.478,0,0,1,.8.543l.732.4c.45.224.78.186.983-.12.062-.245-.1-.482-.49-.731l-.669-.087-.155-.182.887-.425a13.728,13.728,0,0,0,1.732-1.016,14.931,14.931,0,0,0,1.328-1.052l.28.03-.519.581c-1.17.868-2.067,1.5-2.7,1.882l.368.123a23.2,23.2,0,0,0,2.914-2.372c.326-.264.335-.5.029-.7a4.7,4.7,0,0,0-1.559.443,2.447,2.447,0,0,1-1.534.226l-.094.547c.044.241-.081.416-.364.517l-1.1.669.148.547h-.272l-.921-.365Z" transform="translate(-526.167 141.401)" fill="#747474"/>
  <path id="Tracciato_130" data-name="Tracciato 130" d="M542.4-92.4a.908.908,0,0,0,.855,0l-.211-.334-.49-.426c-.265-.142-.483-.008-.644.393Z" transform="translate(-525.714 137.461)" fill="#747474"/>
  <path id="Tracciato_131" data-name="Tracciato 131" d="M557.792-98.368c.268-1.054.594-2.739.879-4.28a3.109,3.109,0,0,0-.659.008,28.885,28.885,0,0,1-.65,4.029Z" transform="translate(-511.566 128.966)" fill="#747474"/>
  <path id="Tracciato_132" data-name="Tracciato 132" d="M550.815-86.375l.521.091a2.723,2.723,0,0,0,1.224-.608l.8-.243.123-.154-.337-.063-.49.125-.736-.125a4.149,4.149,0,0,0-.755.217,1.015,1.015,0,0,0-.471.4Z" transform="translate(-517.673 142.737)" fill="#747474"/>
  <path id="Tracciato_133" data-name="Tracciato 133" d="M550.567-87.45a10.131,10.131,0,0,0,1.406,1.123h.429a1.877,1.877,0,0,1,1.044-.182l-2.6-1.913a2.817,2.817,0,0,0-1.72-.152Z" transform="translate(-519.111 141.565)" fill="#747474"/>
  <path id="Tracciato_134" data-name="Tracciato 134" d="M549.828-87.6c-.08.142-.031.281.159.424s.337.173.462.089Z" transform="translate(-518.5 142.51)" fill="#747474"/>
  <path id="Tracciato_135" data-name="Tracciato 135" d="M539.883-93.982a16.7,16.7,0,0,0-.4,1.884c-.082.566.115.841.58.819a.508.508,0,0,1,.644.332l.828,1.673c-.224.222-.581.163-1.071-.18a4.051,4.051,0,0,1-1.1-1.493,12.338,12.338,0,0,1-.628-1.428c-.176-.463-.352-1.009-.521-1.635s-.638-1.953-1.4-3.966a18.4,18.4,0,0,0-1.789-3.892c-.443-.574-.722-.866-.845-.866-.182-.04-.33.1-.431.4a8.332,8.332,0,0,0-.023,1.474,9.761,9.761,0,0,0,.178,1.96,15.951,15.951,0,0,0,1.345,3.89,18.74,18.74,0,0,0,3.284,4.555q-.98-1.7-2-3.767a39.968,39.968,0,0,1-1.588-3.875,9.609,9.609,0,0,1-.46-1.7c-.017-.253.015-.251.123.015s.316.891.638,1.882a53.861,53.861,0,0,0,2.544,5.32,17.192,17.192,0,0,0,1.845,3.128c.791.765,1.448.988,1.962.667l.329.247.954,1.605,1.01,1.219a1.309,1.309,0,0,0,1.689.365c.117.325.289.444.5.363a.413.413,0,0,1,.508.091l.395.515,2.117,1.4,2.3,1.368,1.349-.241q-.583-.362-1.379-.971a1.345,1.345,0,0,0-.458-.671l-.366.093.147.727-.575-.122c.017-.264-.182-.532-.6-.807s-.95-.623-1.592-1.062a10.223,10.223,0,0,1-1.843-1.611,5.084,5.084,0,0,1-.964-1.261c-.1-.325-.222-.511-.355-.56s-.188-.215-.165-.5l.055-.363.188-1.185-.278-.152-.188.577c-.056.3-.266.167-.623-.406a29.235,29.235,0,0,0-1.856-2.543l-.977-1.182-.092.334c.492.7.9,1.345,1.239,1.909s.619,1.058.841,1.463.605.98,1.136,1.729l.644,1.282,1.13,1.06.035.7a2.592,2.592,0,0,0-.613-.914c-.186-.141-.339-.16-.462-.061-.383.391-.889.133-1.5-.76a13.281,13.281,0,0,1-1.011-1.611c-.08-.118.079-.382.488-.792l-.243-.268-.335.268L540.8-91.49l.186-.272-.186-.277-.213.154-.37-.64-.121.336.184.427-.247.12c-.207.019-.213-.348-.029-1.1.345-1.031.9-2.391,1.651-4.071a10.716,10.716,0,0,1,.155-1.641,21.986,21.986,0,0,0-1.931,4.468" transform="translate(-533.218 128.894)" fill="#747474"/>
  <path id="Tracciato_136" data-name="Tracciato 136" d="M536.984-94.7c.041-1.035.083-1.73.123-2.1s.067-.728.08-1.1a11.966,11.966,0,0,1,.316-1.939l-.121-.127a5.889,5.889,0,0,0-.383,1.6c-.071.638-.128,1.2-.167,1.673s-.125,1.1-.245,1.865a.429.429,0,0,1-.462.032c-.264-.1-.5-.473-.7-1.109a10.453,10.453,0,0,1-.245-3.113q.31-6.174,2.176-9.33c.289-.406.3-.313.031.277a20.354,20.354,0,0,0-1.36,5.695,20.286,20.286,0,0,0-.291,5.239c.364-1.717.7-3.119,1.008-4.19q.247-1.365,1.439-5.315a13.714,13.714,0,0,0,.6-2.54,10.756,10.756,0,0,0,.015-2.357c-.084-.2-.3-.112-.648.277a14.027,14.027,0,0,0-3.121,5.773,26.294,26.294,0,0,0-.678,4.5,13.018,13.018,0,0,0,.261,3.339,14.088,14.088,0,0,0,.689,2.266,2.265,2.265,0,0,0,1.2,1.233,9.073,9.073,0,0,0,.393,1.44c.182.536.32.946.414,1.216a1.588,1.588,0,0,0,.276.56,1.292,1.292,0,0,1,.142.764,21.248,21.248,0,0,0,1.036,2.8l.092-.3a11.532,11.532,0,0,1-.705-2.008,1.633,1.633,0,0,1-.121-.908.33.33,0,0,0-.046-.505,4.046,4.046,0,0,1-.63-1.531,9.372,9.372,0,0,1-.368-1.582c.393-.993.644-1.677.766-2.063a9.511,9.511,0,0,1,.768-1.616c.385-.684.787-1.426,1.2-2.217s1.646-2.722,3.707-5.8c.241-.2.176.047-.214.733l-1.013,1.825-2.113,3.4a19.5,19.5,0,0,0,3.86-5.284,8.526,8.526,0,0,0,.738-1.972,1.8,1.8,0,0,0,0-1.248,3.366,3.366,0,0,0-1.9,1.335,36.394,36.394,0,0,0-2.818,4.441L538.735-99.8l-.958,2.733c-.28.745-.546,1.537-.793,2.367" transform="translate(-532.648 120.891)" fill="#747474"/>
  <path id="Tracciato_137" data-name="Tracciato 137" d="M541.549-106.744a4.251,4.251,0,0,1,2.266-1.1l1.136-2.184a10.772,10.772,0,0,0,.8-2.236,1.85,1.85,0,0,0-.06-.838c-.123-.04-.35.034-.678.218a11.223,11.223,0,0,0-2.877,3.463l-1.776,3.277-1.87,3.282c-.165.243-.339.323-.523.243l-.3-.091a22.706,22.706,0,0,1,3-5.134c.389-.082.477-.232.274-.454l1.259-2.158-1.533,2.184c-.142-.12-.215-.108-.215.032l.031.245a26.387,26.387,0,0,0-1.914,2.872c-.544.938-.958,1.689-1.241,2.232-.186-.038-.381-.274-.584-.7l-.153.458.646.786-1.073,2.707-.247-.03-.027.274.125.454.241.184a1.136,1.136,0,0,0,.919-.638c-.431.2-.682.243-.764.122l1.012-2.95a1.647,1.647,0,0,0,.914-.182c1.37-2.084,2.23-3.394,2.577-3.919,1.262-2.126,2.278-3.7,3.032-4.705a17.364,17.364,0,0,1,1.395-1.749c.174-.152.17-.078-.015.226q-1.655,2.433-2.433,3.645c-.521.811-.969,1.529-1.335,2.16" transform="translate(-531.236 119.569)" fill="#747474"/>
  <path id="Tracciato_138" data-name="Tracciato 138" d="M574.663-100.5a8.184,8.184,0,0,1,.7-1.7c.387-.608.45-.627.184-.063a5.924,5.924,0,0,0-.732,2.188l.95,2.1a6.387,6.387,0,0,1,1.19-2.458c.247-.306.268-.274.065.089a6.493,6.493,0,0,0-1.106,2.646l.613,1.729a5.178,5.178,0,0,1,.523-1.244c.1-.141.113-.1.029.12s-.182.547-.307.973a1.727,1.727,0,0,0,.1,1.248,15.225,15.225,0,0,0,.87,1.578c.4.648.7,1.13.922,1.444s.523.754.935,1.322l.766-.032.121-1.459c.548-.184.835-.463.856-.847a10.363,10.363,0,0,0-.272-3.13,10.35,10.35,0,0,0-2.056-2.067c-.285-.283-.264-.327.063-.122a11.585,11.585,0,0,1,1.839,1.427l-.464-1.854a8.365,8.365,0,0,1-1.559-1.761c-.228-.325-.215-.365.029-.125a5.986,5.986,0,0,0,1.41,1.343c-.224-.672-.458-1.358-.7-2.067a9.675,9.675,0,0,0-1.967-1.823q-.586-.425,0-.213a5.754,5.754,0,0,1,1.624,1.094c-.266-.688-.531-1.362-.8-2a7.164,7.164,0,0,0-1.167-1.25c-.159-.182-.109-.192.155-.032a3.933,3.933,0,0,1,.86.76l-.4-1.271c-.044-.33.012-.33.151,0l.433.971.67,1.7a3.492,3.492,0,0,0,.155-1.1c.084-.526.136-.509.155.059a5.463,5.463,0,0,1-.125,1.489q.46,1.125.86,2.4a3.965,3.965,0,0,0,.674-1.8c.1-.545.14-.5.117.154a4.559,4.559,0,0,1-.58,1.913c.268,1.071.511,1.987.737,2.737a2.34,2.34,0,0,0,.674-1.13c.2-.3.236-.247.1.158a4.551,4.551,0,0,1-.676,1.427,18.983,18.983,0,0,1,.379,2.141A10.278,10.278,0,0,1,581.711-93c.14-.078.224-.349.249-.819a2.9,2.9,0,0,1,.191-.881,10.513,10.513,0,0,1,.632-1.335c.264-.49.255-.709-.033-.669l-.55.15a.242.242,0,0,1-.276-.272,1.522,1.522,0,0,1,.475-.946,1.042,1.042,0,0,0,.408-.724,2.257,2.257,0,0,0-.333-1.124,1.519,1.519,0,0,0-.812.456c-.136.177-.2.186-.216.013a1.447,1.447,0,0,1,.28-.743,1.459,1.459,0,0,0,.186-1.052,7.082,7.082,0,0,0-.6-1.561c.224-.954-.042-1.223-.8-.822a3.057,3.057,0,0,0-.433-2.031c-.3-.633-.621-.762-.948-.4a5.646,5.646,0,0,0-1.471-1.609c-.3-.146-.487-.123-.55.057a5.69,5.69,0,0,1-.3.7,2.036,2.036,0,0,0,0,1.343c-.454.12-.638.344-.556.669l.307.938a2.219,2.219,0,0,1,.473.944,1.612,1.612,0,0,1-.1,1c.626-.365,1.058-.386,1.284-.065a1.831,1.831,0,0,1,.061.794,6.917,6.917,0,0,0-.029,1.275c-.023.142.155.27.519.378s.481.31.337.595c-.082.1-.261.055-.536-.139s-.466-.2-.563-.015c-.266.368-.065.781.611,1.246q1.957,1.282,1.624,1.459c-.393.084-.525.291-.4.64.058.2.3.425.732.669a1.094,1.094,0,0,1,.456,1.212c-.059.57-.272.906-.64,1a4.119,4.119,0,0,1-.152-1.109c.017-.171-.117-.325-.4-.456s-.667-1.045-1.136-2.749L578.064-97c.6,1.981.973,3,1.132,3.039s.33.249.492.636a7.119,7.119,0,0,1,.019,1.275c-.036.547.151.813.563.79l-.278.33a.971.971,0,0,1-.55-.387,1.708,1.708,0,0,1-.287-.87c-.013-.294-.019-.6-.019-.914s-.153-.4-.458-.272-.506.152-.6.063a.621.621,0,0,1-.173-.336,2.059,2.059,0,0,1,.245-.836,1.07,1.07,0,0,0-.042-.636c-.073-.123-.262-.163-.569-.123s-.408-.251-.3-.881l.364-1.3c.126-.669-.142-.762-.791-.274a2,2,0,0,1,.577-1.189.9.9,0,0,0,.354-.881,3.147,3.147,0,0,1,0-.984c.054-.319.008-.522-.14-.625-.423-.038-.987.4-1.684,1.307l.337-.849a3.053,3.053,0,0,0,.216-2.127,1.772,1.772,0,0,0-.642-.549,1.846,1.846,0,0,0-.649.636c-.262.306-.427.367-.485.186l.15-.946a.9.9,0,0,0-.506-.834c-.316-.148-.665-.34-1.057-.564a3.5,3.5,0,0,1-.272.733,2,2,0,0,0-.274,1.124c-.084.222.006.536.274.942-.718,0-.914.331-.586,1l.249.365a2.8,2.8,0,0,1,.429.819c-.429-.042-.667.053-.711.274a.588.588,0,0,0,.345.64,4.618,4.618,0,0,1,2.3,1.635c.37.672.665,1.007.887,1.007l-.611-1.611a4.4,4.4,0,0,0-2.054-1.307q-.488-.214,0-.12a9.545,9.545,0,0,1,1.87.908c-.205-.465-.427-.98-.676-1.548a5.478,5.478,0,0,0-1.345-1.031q-.4-.3,0-.093a5.358,5.358,0,0,1,1.314.847,13.738,13.738,0,0,1-.676-2.638l-.117-.336.213.065q.394,1.217.828,2.94M544.6-88.13l.182-.338c.124-.241.178-.232.155.032l-.28.76a13.892,13.892,0,0,1,.161,2.245,19.873,19.873,0,0,0,.611-3.4c.037-.627-.1-.792-.4-.484l-.46.572Zm-.059-1.124.58-.853c.163-.3.109-.425-.153-.365a4.029,4.029,0,0,0-.588.334,5.67,5.67,0,0,1,.161.883m37.417.878a2.765,2.765,0,0,1,.762-.245c.3-.04.345-.009.121.095a2.513,2.513,0,0,0-.678.365,2.084,2.084,0,0,1,.5,1.4l.337.6a1.576,1.576,0,0,0,.7-.346.571.571,0,0,0,.138-.5c-.032-.205-.27-.342-.722-.425a2.251,2.251,0,0,0,.981-1.489c-.019-.306-.22-.456-.611-.456a2.579,2.579,0,0,0,.306-.988,1.511,1.511,0,0,0-.243-.9c-.345-.243-.766-.173-1.259.213-.349-.163-.753-.011-1.222.454q-.405,1.613-.644,3.071c.264.141.623-.131,1.069-.824a2.753,2.753,0,0,1-.276-1q.06-.553.184.03a1.278,1.278,0,0,0,.28.665,9.923,9.923,0,0,1,.918-1.55c.228-.279.287-.293.184-.03a6.208,6.208,0,0,0-.889,1.854ZM571.2-107a2.316,2.316,0,0,0,1.68,1.578l.186-.334a4.994,4.994,0,0,1,2.08,1.368.638.638,0,0,1,.094.727c.324-.424.586-.522.766-.3l-.211-.61a.774.774,0,0,1,.151-.665l-.067-.184a6.717,6.717,0,0,0-2.151-.866,3.558,3.558,0,0,1-1.308-.41q-.609-.393.186-.059a3.729,3.729,0,0,0,1.226.331,6.529,6.529,0,0,1,1.9.636l-.368-.821a4.5,4.5,0,0,0-1.073-1.244,6.111,6.111,0,0,0-1.577-.517,3.4,3.4,0,0,1-1.117-.332c-.33-.2-.337-.272-.035-.211a3.482,3.482,0,0,0,1.073.319,8.619,8.619,0,0,1,1.381.319c-.268-.291-.613-.667-1.042-1.159a9.433,9.433,0,0,1-1.226-1.82c-.019-.163.052-.1.215.18a15.718,15.718,0,0,0,1.657,2.036,7.251,7.251,0,0,1-.063-1.7c.04-.266.092-.152.155.334a4.588,4.588,0,0,0,.121,1.521,14.529,14.529,0,0,1,1.776,1.907,6.959,6.959,0,0,1,.033-1.485c.04-.283.073-.283.09,0a7.647,7.647,0,0,0,.184,1.917l.245.547a2.219,2.219,0,0,1,.425-1.278,2.193,2.193,0,0,0-.578-1.793c-.159-.669-.326-1-.492-1-.1,0-.23.19-.395.574l-.489-.182c-.31-1.4-.644-2.148-.994-2.26s-.55-.028-.571.256a2.114,2.114,0,0,0-1.622-.486,1.019,1.019,0,0,0-.46,1.153l.276,1.066-.216.272-.462.122c-.264.144-.264.386,0,.733a3.2,3.2,0,0,0,1.475,1.031c.3.222.232.349-.219.376s-.659.167-.638.414m-1.54-1.6c-.671-.3-1.282-.653-1.309-1.472l.548-.211c.241-.285.251-.5.017-.64s-.364-.519-.385-1.128q.333-.727,1.657,0,.578-1.123,1.408-.665a.926.926,0,0,0-1.046.754,3.831,3.831,0,0,0,0,1.187,3.01,3.01,0,0,0-.734-.726c-.55-.287-.655-.256-.306.091a8.516,8.516,0,0,1,.917,1.062,2.031,2.031,0,0,1-1.469.486c-.184.084-.151.133.094.152a1.593,1.593,0,0,0,.858-.063,2.6,2.6,0,0,0,.209,1.187,3.156,3.156,0,0,0,.757.745.456.456,0,0,0-.326.256c-1.14.019-1.368-.006-1.439-.18-.04-.137-.065-.258.339-.49Zm-2.293-4.422a3.155,3.155,0,0,1-.738-1.548c0-.386.062-.342.182.12a6.059,6.059,0,0,0,1.077,1.615l.425.175a1.3,1.3,0,0,1,1.659.1l-.094-.731q-.276-.6-.919-.182a10.016,10.016,0,0,0-1.379-1.351,7.4,7.4,0,0,0-1.314-.807.62.62,0,0,0-.825.274l-.617-.363c-1.038-.507-1.571-.64-1.592-.4a.681.681,0,0,0,.151.7,3.044,3.044,0,0,0-1.64.093c-.3.165-.374.376-.242.642a1.9,1.9,0,0,0,1.025.727q-.431.453-.249.76a1.715,1.715,0,0,0,1.138.486l.889-.093c.226.021.264.182.121.486-.061.348.09.484.46.429a1.643,1.643,0,0,0,1.657.484l.584-.125-.067.7,1.042.33.337-.118a2.974,2.974,0,0,1-.4-1.67l-.519-.213a2.93,2.93,0,0,0-1.473.454c-.328.18-.408.177-.243-.027a3.578,3.578,0,0,1,1.32-.608,16.346,16.346,0,0,1-1.937-.822,5.314,5.314,0,0,1-2.236.245.894.894,0,0,1-.37-.125c-.038-.04.138-.047.521-.025a4.138,4.138,0,0,0,1.78-.34,2.564,2.564,0,0,0-.718-.469,10.516,10.516,0,0,0-1.732-.56c-.2-.082-.2-.123.027-.123a5.316,5.316,0,0,1,1.779.486c.289.142.59.289.922.429a4.893,4.893,0,0,1-1.017-1.25c-.038-.363.054-.363.28,0a12.083,12.083,0,0,0,.966,1.125,4.54,4.54,0,0,0,1.977,1.094M539.423-80.475a13.315,13.315,0,0,1,.307-1.675,23.338,23.338,0,0,1,2.084-4.583,11.022,11.022,0,0,1,.337-1.852,12.349,12.349,0,0,0-2.312,4.629,12.753,12.753,0,0,0-.416,3.482m34.8-1.3a.6.6,0,0,1,.2.427.5.5,0,0,0,.247.408,8.317,8.317,0,0,0,.644-.758.977.977,0,0,0-.184-.363,7.952,7.952,0,0,0-.874-.868,8.719,8.719,0,0,1-1.09-1.14c-.142-.179-.1-.2.122-.063a6.155,6.155,0,0,0,.937.857,7.511,7.511,0,0,1,1.056.94,27.082,27.082,0,0,0-.335-2.768c-.081-.583-.029-.6.151-.028a14.727,14.727,0,0,1,.4,1.732,4.654,4.654,0,0,0,.32-.549c.094-.184.2-.391.32-.638.228-.4.262-.361.1.125-.061.2-.136.425-.228.682a4.573,4.573,0,0,1-.308.684,1.582,1.582,0,0,0,.017,1.06,12.908,12.908,0,0,1,1.715-1.759c.14-1.176.1-1.767-.123-1.767s-.374.222-.458.655-.134.384-.155-.163-.1-.843-.228-.883a.5.5,0,0,0-.46.169.89.89,0,0,1-.446.243c-.121.009-.209-.513-.243-1.567a.977.977,0,0,1,.243-.667,1.548,1.548,0,0,0,.2-1.079,9.449,9.449,0,0,0-.105-1.109,2.1,2.1,0,0,0-.2-.577.915.915,0,0,0-.26-.363c-.081-.066-.182,0-.3.194s-.214.222-.28.078a.931.931,0,0,0-.4-.4c-.2-.12-.4-.032-.594.26a5.548,5.548,0,0,0-.569,1.748c.41-.46.724-.689.952-.669s.345.108.368.258a3.576,3.576,0,0,0,.165.638,4.182,4.182,0,0,1,.153,1.2,6.587,6.587,0,0,0,.061.955.444.444,0,0,1-.029.334.374.374,0,0,1-.266.256c.163.021.155.061.155.108a4.529,4.529,0,0,1-.163.638c-.117.374-.182.61-.2.71a1.74,1.74,0,0,0,.031.549.886.886,0,0,1-.155-.484,5.078,5.078,0,0,0,.155-1.37l-.119-.122.119-.122a5.338,5.338,0,0,0-.031-1.7,3.109,3.109,0,0,0-.4-1.166c-.161-.236-.5-.074-1.01.471-.264-.22-.464-.3-.582-.243s-.075.325.148.788a12.1,12.1,0,0,1,.768,1.248,7.111,7.111,0,0,1,.368.91,1.56,1.56,0,0,1,0,.973c-.59-.446-.965-.553-1.136-.317a.682.682,0,0,0-.071.714,3.164,3.164,0,0,0,.385.634c-.188.363-.023.769.489,1.216.569.469.912.746,1.025.834m-31.455,1.385.059-2.369.031-1.732a40.036,40.036,0,0,1,.584-6.475c.126-.22.144-.127.063.275-.145,1.662-.23,3.147-.264,4.456s-.061,2.352-.092,3.142-.04,1.814-.04,3.068l.4-.851a8.474,8.474,0,0,0,.828-3.279,22.022,22.022,0,0,0,0-4.3,13.781,13.781,0,0,0-.554-3.267c-.387.1-.8.992-1.228,2.673A21.96,21.96,0,0,0,542-85.3a19.535,19.535,0,0,0,.366,4.462Zm5.419-30.5.435-.274a24.166,24.166,0,0,1,3.322-2.34,7.627,7.627,0,0,1,2.439-1l.673-.879c.125-.245.053-.4-.215-.456a6.894,6.894,0,0,0-1.962.272,12.294,12.294,0,0,0-3.994,2.126,18.885,18.885,0,0,0-3.207,3.434l1.814-1.607a40.023,40.023,0,0,1,4.038-2.722,9.977,9.977,0,0,1,1.9-.836,6.063,6.063,0,0,1-1.567.942,37.915,37.915,0,0,0-4.9,3.56c.59-.308,1-.38,1.22-.217m.1,1q1.744-1.151,3.58-2.338c.737-.441,1.408-.817,2.025-1.121.546-.123.588-.04.125.241a51.434,51.434,0,0,0-5.791,3.77v.18c1.716-.75,3.105-1.4,4.182-1.945a12.445,12.445,0,0,0,2.678-1.793,1.925,1.925,0,0,0,.7-1.276,3.117,3.117,0,0,0-1.745,0,22.015,22.015,0,0,0-5.728,3.921Zm-9.5,8.692a5.485,5.485,0,0,1,.4-.579c.165-.2.58-.663,1.255-1.394a38.739,38.739,0,0,0,3.864-5.9l1.5-3.827a.355.355,0,0,0-.088-.4c-.123-.04-.554.256-1.287.881a16.871,16.871,0,0,0-1.1,1.307,14.237,14.237,0,0,0-1.624,2.72,22.878,22.878,0,0,0-.981,2.2l-.584,1.457a33.643,33.643,0,0,1,3.492-5.864q.649-.732.339-.032a15.245,15.245,0,0,0-1.531,2.4,60.163,60.163,0,0,1-2.94,5.586l-.584.914Zm-1.226,11.121c.387-1,.644-1.679.766-2.065a9.3,9.3,0,0,1,.768-1.615c.387-.684.787-1.426,1.2-2.217s1.646-2.724,3.709-5.8c.241-.2.174.046-.216.733l-1.011,1.823-2.115,3.4a19.459,19.459,0,0,0,3.841-5.244l.019-.042a8.573,8.573,0,0,0,.739-1.972,1.822,1.822,0,0,0,0-1.248,3.363,3.363,0,0,0-1.9,1.335,36.928,36.928,0,0,0-2.818,4.435L539.3-95.665l-.956,2.733c-.28.752-.552,1.535-.795,2.367Zm-.394-.61a.425.425,0,0,1-.462.032c-.266-.1-.5-.475-.707-1.109a10.478,10.478,0,0,1-.245-3.113q.313-6.169,2.176-9.326c.289-.41.3-.313.031.274a20.383,20.383,0,0,0-1.362,5.693A20.26,20.26,0,0,0,536.3-93c.366-1.719.707-3.119,1.008-4.19q.247-1.365,1.444-5.317a13.639,13.639,0,0,0,.6-2.538,10.764,10.764,0,0,0,.015-2.357c-.084-.2-.3-.112-.647.277a14.076,14.076,0,0,0-3.121,5.774,26.437,26.437,0,0,0-.676,4.494,13.11,13.11,0,0,0,.259,3.337,13.864,13.864,0,0,0,.69,2.268,2.3,2.3,0,0,0,1.193,1.233,2.5,2.5,0,0,1,.1-.672m3.176-8.935c1.372-2.091,2.205-3.36,2.552-3.886q1.9-3.188,3.032-4.705a17.684,17.684,0,0,1,1.395-1.749c.174-.15.174-.078-.013.226q-1.658,2.433-2.435,3.645c-.521.813-.969,1.529-1.333,2.162a4.213,4.213,0,0,1,2.264-1.1l1.138-2.184a10.861,10.861,0,0,0,.795-2.236,1.759,1.759,0,0,0-.061-.832c-.123-.042-.349.027-.676.211a11.31,11.31,0,0,0-2.879,3.457l-1.77,3.284-1.841,3.237ZM540.3-79.33c.285-.076.266.218.41.524l.826,1.67Zm-.264-.175c-.209.021-.215-.346-.031-1.094.345-1.031.9-2.391,1.653-4.071a11.478,11.478,0,0,1,.153-1.643,22.181,22.181,0,0,0-1.931,4.468,16.3,16.3,0,0,0-.394,1.886c-.084.541.1.811.519.819Zm1.511,2.363c-.234.228-.592.171-1.083-.173a4.1,4.1,0,0,1-1.1-1.491,12.87,12.87,0,0,1-.628-1.43c-.174-.467-.351-1.011-.519-1.639s-.64-1.947-1.4-3.964a18.861,18.861,0,0,0-1.789-3.892c-.444-.572-.724-.864-.847-.864-.18-.042-.328.095-.429.4a8.056,8.056,0,0,0-.025,1.476,9.666,9.666,0,0,0,.18,1.958,15.782,15.782,0,0,0,1.343,3.892,18.7,18.7,0,0,0,3.283,4.553q-.98-1.7-1.994-3.765a40.14,40.14,0,0,1-1.59-3.875,9.388,9.388,0,0,1-.458-1.7c-.019-.255.013-.251.121.013s.316.889.638,1.886a54.753,54.753,0,0,0,2.544,5.319,17.259,17.259,0,0,0,1.845,3.128c.732.771,1.46.986,1.958.669Zm36.21-4a2.605,2.605,0,0,0,.333,1.064c.083.123-.006.232-.259.334s-.381.234-.381.4a3.322,3.322,0,0,1-.494,2.49,9.009,9.009,0,0,0,1.182-1.121,5.526,5.526,0,0,0,.966-1.55,4.146,4.146,0,0,0-.644-.792q-.308-.336,0-.182a2.257,2.257,0,0,1,.764.76,11.422,11.422,0,0,0,.858-2.433,8.689,8.689,0,0,0-1.163-2.64c-.285-.507-.213-.494.215.03A8.522,8.522,0,0,1,580.27-82.6a15.479,15.479,0,0,0,.582-2.156l-.4-1.276a3,3,0,0,1,.49.974l.31-1.066c.159-.408.193-.293.088.334a27.332,27.332,0,0,1-.764,2.92,7.478,7.478,0,0,0,1.412-1.613c.259-.243.251-.152-.029.274a7.324,7.324,0,0,1-1.508,1.824,9.261,9.261,0,0,1-.82,2.49,4.873,4.873,0,0,1,1.157-.669c.184-.019.136.061-.153.243a3.713,3.713,0,0,0-1.13.762,6.177,6.177,0,0,1-2.452,3.187,12.376,12.376,0,0,0,1.96-.849c.512-.285.663-.633.462-1.031a18.87,18.87,0,0,0,1.778-1.825,1.193,1.193,0,0,0,.119-1.3c-.14-.182.2-.748,1.04-1.7a2.817,2.817,0,0,0,.508-1.309c.073-.509.057-.79-.044-.849q-.894.088-.8-1.52c-.145-.807-.35-1.077-.615-.786q-.4.872-.87.71c-.322-.11-.481-.066-.481.135.023.914-.234,1.267-.764,1.068l-.8-.488q-1.009-.333-.462.881l.525.7c.182.507.165.771-.063.79-.49-.1-.736.029-.736.4a2.5,2.5,0,0,0,.6,1.442c.314.338.341.593.075.773a1.124,1.124,0,0,0-.734,0" transform="translate(-533.218 116.757)" fill="#747474"/>
  <path id="Tracciato_139" data-name="Tracciato 139" d="M555.555-88.955c-.655.023-1.193.065-1.626.123-1.163.139-2.287.313-3.37.517l-2.632.482a38.19,38.19,0,0,1-4.046.4q-1.474-1.066-4.14-2.737a39.218,39.218,0,0,0-3.887-2.183c-.2-.186-.236-.355-.1-.519a3.041,3.041,0,0,1,1.226-.154c.286.019.4.091.335.209a.382.382,0,0,1-.364.2c-.186.011-.349.025-.488.048a23.44,23.44,0,0,1,3.486,1.886l-.025-1.584a2.724,2.724,0,0,1,.364-1.518c.065-.342-.339-.627-1.2-.851-.121-.036-.18-.009-.18.091l.034.7.395-.608.274.122-.464.914c-.059.141-.19.2-.395.179a23.546,23.546,0,0,0-2.755.063c-.558.021-.718.376-.5,1.064a1.274,1.274,0,0,1-.059.669,9.215,9.215,0,0,1-1.069,2.31c-.165.18.165.708.979,1.578a23.868,23.868,0,0,0,3.776,2.614,34.165,34.165,0,0,0,4.59,2.34q3.126-.365,6.341-.938c.862-.188,1.82-.391,2.883-.627a48.308,48.308,0,0,0,5.243-1.681c.159-.044.215-.258.15-.644a8.716,8.716,0,0,0-.979-2.612,15.513,15.513,0,0,1-1.808.15m-8.092.667,1.841-.3-1.408-.917Zm19.03-.272q1.781.336,2.574.458a2.988,2.988,0,0,1-.523-1.187c-.081.368-.4.484-.983.368Zm-3.372-.788c.37-.179.774-.4,1.222-.638a.664.664,0,0,0,.339-.456,1.051,1.051,0,0,1,.74-.8,2.339,2.339,0,0,1,1.071-.258,1.069,1.069,0,0,0,.764-.215l.339-.215-.245-.3a.216.216,0,0,0-.27-.1,22.683,22.683,0,0,0-3.468,1.489,3.683,3.683,0,0,0-.952.762l-.492.671Zm4.843,6.137a41.047,41.047,0,0,0,6.038.4q3.523-2.342,5.576-3.8l1.592-1.035a4.321,4.321,0,0,0,.8-1.273,6.107,6.107,0,0,1-1.042-2.5,3.648,3.648,0,0,1-.09-1.109c.015-.4-.4-.6-1.257-.619l-.737.03-1.651-.095a.989.989,0,0,1-.678-.454l-.061-.306.58.16v-.674l-.425.123c-.533.16-.728.342-.579.551a1.631,1.631,0,0,1,.364.967,21.739,21.739,0,0,1-.218,2.4,23.371,23.371,0,0,1,3.437-2.127,1.319,1.319,0,0,0-.619-.061c-.24-.1-.264-.232-.056-.4a5.27,5.27,0,0,1,1.423.139c.314.091.3.237-.046.437a21.889,21.889,0,0,0-4.2,2.587,18.58,18.58,0,0,1-3.4,2.49,3.533,3.533,0,0,1-1.347.072c-.592-.049-1.556-.2-2.881-.437-1.372-.2-2.55-.424-3.542-.672a19.182,19.182,0,0,0-3.383-.481l-.46.059v.179a4.9,4.9,0,0,1,1.147,1.9,2.942,2.942,0,0,1,.15,1.03,2.96,2.96,0,0,1-.558.9l-.22.209.49.123a41.993,41.993,0,0,0,5.854,1.276m-9.772-.672a1.1,1.1,0,0,0,.948-.3l.672-.425.827-1.031.155.486c.161.144.435-.04.824-.545a2.121,2.121,0,0,0-.044-1.189,9.069,9.069,0,0,0-1.762-2.277l-.582-.547-.37-.028.768.365-.429.18-.737-.308a2.465,2.465,0,0,0-1.868.066c.9-.106,1.37-.066,1.412.122a8.426,8.426,0,0,1,.736,1.624,4.826,4.826,0,0,1,.4,2.112l-.948.91c-.349.388-.473.427-.37.122l-.155-.122-.552.274Zm-5.306-5.376c.6-.021,1.146-.059,1.655-.12a9.857,9.857,0,0,0-1.132-1.339l-2.512-.94-1.471-.7a.775.775,0,0,0-.663-.065.9.9,0,0,0-.383.638l.065.061c.163-.363.314-.568.458-.61a1.107,1.107,0,0,1,.8.186,2.725,2.725,0,0,1,.7.6c.245.281.632.741,1.163,1.368Z" transform="translate(-532.648 136.17)" fill="#747474"/>
  <path id="Tracciato_140" data-name="Tracciato 140" d="M540.153-88.614l.149.133c.287.19.561.1.755-.247a.5.5,0,0,0-.115-.815c-.149-.133-.149-.133-.276.082ZM536.109-91.3c.368.255.584.452.975-.047a.525.525,0,0,0-.042-.752l-.211-.127-.142.08Zm5.81,2.834c.056-.272.109-.488-.1-.676l.061-.076c.138.066.293.194.433.256a3.335,3.335,0,0,0,.5.243l-.065.074c-.073-.065-.287-.12-.349.015s-.234.836-.3,1.05l-.2,1.176.864-.729a8.415,8.415,0,0,0,.72-.8c.126-.213-.015-.274-.082-.34l-.008-.133c.142.125.281.186.358.253a1.428,1.428,0,0,1,.358.188l0,.065c-.286-.188-.546.171-.816.386l-1.72,1.607-.144-.066Zm-2.218.425a2.2,2.2,0,0,0-.253.562c-.055.141.081.2.232.336l-.071.066a2.824,2.824,0,0,0-.5-.315c-.146-.059-.291-.188-.435-.249l0-.141c.138.065.283.192.351.055a1.54,1.54,0,0,0,.395-.507l.638-1.062a2.919,2.919,0,0,1,.316-.5c.058-.207-.08-.268-.224-.332l.069-.07c.14.133.353.186.5.313.14.065.286.2.429.256a.711.711,0,0,1,.335,1.079.8.8,0,0,1-1.243.2l-.215-.125Zm-1.544-2.439a3.146,3.146,0,0,1,.318-.5c.061-.2-.082-.264-.222-.329l.13-.082,1.517.955-.391.568-.069-.065c.255-.422.107-.551-.251-.809l-.22-.125c-.069-.07-.069-.07-.2.08l-.582.921c.435.323.64.108.833-.114l.063,0c-.123.215-.253.361-.32.5a2.684,2.684,0,0,1-.318.5l-.077-.068c.261-.42.111-.551-.251-.741l-.381.644c-.065.133-.192.285-.184.416a.463.463,0,0,0,.3.4c.362.19.571.249.9-.11l.073,0-.385.634-1.726-1.145.056-.076a.309.309,0,0,0,.352.049c.067-.072.259-.355.393-.494Zm-1.674.944c.014.207.014.275.163.408l-.061.072-.224-.2-.286-.118.052-.351.01-1.1c-.01-.205-.01-.205-.157-.338l-.322.435c-.067.139-.257.422-.32.564.01.137.075.2.222.262l-.067.072c-.142-.063-.287-.194-.423-.255a1.306,1.306,0,0,0-.506-.312l.059-.074c.144.061.216.125.347.049a1.357,1.357,0,0,0,.4-.5l.709-1.066a3.293,3.293,0,0,0,.326-.5c.061-.142-.086-.2-.161-.268l0-.139c.213.131.36.262.579.386a1.3,1.3,0,0,1,.36.255c.364.255.663.585.337,1.079a.723.723,0,0,1-1.029.258Zm19.906.914-.578-1.06-.171,1.145Zm-8.885,2c.069.131.071.334.148.467s.209.129.337.129a.527.527,0,0,0,.328-.686.678.678,0,0,0-.289-.528,1.15,1.15,0,0,0-.477.011l-.128.006Zm-.094-.8h.073c.128-.082.266-.084.333-.156a.732.732,0,0,0,.125-.534c-.081-.331-.218-.463-.49-.452l-.205.068,0,.2Zm-2.132,1.128a1.76,1.76,0,0,0,.147.534c.079.129.213.123.343.055.337-.008.473-.283.395-.686-.081-.2-.153-.4-.356-.46a.787.787,0,0,0-.546.015h-.067Zm-.153-.739.134-.068c.13-.008.264-.01.329-.141a.559.559,0,0,0,.127-.475c-.077-.336-.222-.528-.557-.462l-.207.082v.129Zm10.387-1.189c.006.2-.119.543-.052.676.008.2.213.125.351.123v.133c-.132.008-.272.008-.4.011a.961.961,0,0,1-.408.078v-.065a.445.445,0,0,0,.331-.351c.054-.334.05-.6.109-.876l.293-1.818h.134l1.077,2.051c.073.127.215.332.284.462a.491.491,0,0,0,.345.059l0,.131a1.244,1.244,0,0,0-.477.082c-.2.008-.4.078-.54.08V-87.5c.063-.066.27-.074.192-.275l-.067-.26-.291-.469-.883.16Zm-1.268-1.715.073,0,.163.87h-.073c-.149-.465-.5-.788-.9-.71-.678.085-.724.887-.638,1.558.153.669.444,1.332,1.123,1.248.473-.15.6-.553.586-1.09l.065-.07.163,1-.144-.2a1.191,1.191,0,0,1-.739.422,1.324,1.324,0,0,1-1.531-1.237c-.094-.868.3-1.616,1.038-1.7a1.13,1.13,0,0,1,.824.114Zm-2.778,1.282c-.006-.137-.077-.4-.082-.538a.442.442,0,0,0-.347-.12l-.067-.063a1.654,1.654,0,0,1,.544-.085c.2-.006.4-.082.542-.082l0,.068a.366.366,0,0,0-.27.2,1.485,1.485,0,0,0,.08.539l.171,1.273a1.35,1.35,0,0,0,.15.534c.075.129.211.122.343.122l.008.139c-.2,0-.345.01-.542.013a1.4,1.4,0,0,1-.542.082v-.066c.132,0,.27-.008.259-.211.067-.135-.008-.4-.012-.53Zm-2.372.45c0-.139-.075-.467-.082-.606a.24.24,0,0,0-.341-.057l-.077-.133a1.466,1.466,0,0,0,.548-.076,1.253,1.253,0,0,0,.546-.087l.065.133c-.138,0-.27.006-.333.144,0,.129.081.462.081.6l.17,1.273c.086.536.222.661.7.585.132-.07.341-.072.469-.217a.7.7,0,0,0,.123-.539l.134-.068.088.8-.2.009c-.611.078-1.287.23-1.9.315l0-.072c.136-.066.27-.072.268-.205a1.815,1.815,0,0,0-.015-.6Zm-2.167.387a1.227,1.227,0,0,0-.155-.532c-.069-.135-.2-.125-.339-.125l-.006-.066a1.458,1.458,0,0,1,.544-.082c.136,0,.268-.072.41-.08.4-.08.879-.021.96.511.084.4-.188.608-.454.75a.768.768,0,0,1,.552.123,1.037,1.037,0,0,1,.418.52.864.864,0,0,1-.251.676.905.905,0,0,1-.674.226c-.067.066-.272.072-.41.076a1.879,1.879,0,0,0-.605.152l0-.131c.067,0,.266-.008.261-.215,0-.131-.077-.4-.077-.534Zm-2.3.4c0-.135-.082-.469-.086-.6-.069-.129-.207-.125-.341-.053l0-.135a1.193,1.193,0,0,0,.471-.082,1.123,1.123,0,0,0,.475-.076.729.729,0,0,1,.973.576.633.633,0,0,1-.391.746,1.268,1.268,0,0,1,.544.055.691.691,0,0,1,.356.6.671.671,0,0,1-.251.676.936.936,0,0,1-.605.215.929.929,0,0,0-.473.085c-.278.006-.4.078-.684.085l0-.066c.134-.078.272-.08.333-.218,0-.129-.077-.463-.081-.6Zm23.061.351-.209-1.235-.55,1.1Zm4.621-.308c0-.133-.071-.475-.071-.547-.065-.205-.211-.133-.343-.133v-.139h.548c.136,0,.345-.068.552-.068v.135c-.134,0-.282,0-.343.144v.608l.136,1.238a1.8,1.8,0,0,0,.073.617c.065.137.207.137.337.137v.065h-.546a1.56,1.56,0,0,1-.548.066v-.066c.069,0,.274,0,.274-.2a1.562,1.562,0,0,0,0-.551Zm-2.711-.26c0-.137.073-.479.073-.614a.391.391,0,0,0-.343-.213l.069-.055c.134,0,.343.055.479.055a1.742,1.742,0,0,0,.617.076l-.065.137c-.065,0-.274-.066-.343.067s-.069.482-.143.614l-.2,1.309c-.069.547,0,.684.414.752.209,0,.412.066.548,0,.28-.141.28-.279.345-.551h.14l-.205.824-.14-.068c-.688-.139-1.31-.205-1.994-.346v-.065a.5.5,0,0,0,.412-.141,2.158,2.158,0,0,1,.138-.545Zm-2.872.7c-.071.139-.209.481-.281.617,0,.209.211.209.281.275v.065c-.142,0-.281-.065-.416-.065s-.278-.066-.41-.066l.065-.072c.207,0,.272-.066.414-.274.138-.27.276-.549.414-.824l.826-1.639.136.066.412,2.329c.073.137.073.414.144.545.063.146.13.146.268.207v.072c-.138,0-.339-.072-.546-.072a1.524,1.524,0,0,0-.554-.061l.069-.146c.071,0,.278.072.278-.065v-.412l-.071-.481-.962-.137Zm-.266-1.4-.069-.063c.069-.414-.073-.557-.414-.625-.207,0-.418-.061-.418.068l-.339,2.126c0,.346,0,.414.339.553v.068a1.933,1.933,0,0,1-.615-.139,1.914,1.914,0,0,1-.621-.068v-.068c.412,0,.487-.066.546-.41l.276-2.129c.074-.061-.138-.133-.276-.133-.408-.065-.546-.065-.613.481l-.138-.066.138-.691,2.335.41Zm-3.487-.456c0-.139.067-.414,0-.551,0-.137-.14-.205-.27-.205v-.135a2.182,2.182,0,0,0,.552.135c.2,0,.4.068.611.068l-.069.068c-.077,0-.274,0-.341.139s-.071.406-.138.549l-.134,1.3a1.624,1.624,0,0,0-.071.545c0,.205.142.205.272.205v.142c-.2-.076-.345-.076-.552-.142a1.476,1.476,0,0,1-.546-.07V-86.8c.132,0,.272,0,.345-.137a1.251,1.251,0,0,0,.134-.545Zm16.6-2.055-1.031-.688.412,1.17Zm-4.636,3.3-.9-.821.205,1.17Zm4.084-2.553a2.042,2.042,0,0,0,.209.689c.138.135.27,0,.343-.072l.069.139a1.836,1.836,0,0,1-.341.209.835.835,0,0,0-.28.274l-.067-.141c.136-.133.136-.205.136-.408a7.017,7.017,0,0,1-.274-.891l-.552-1.784.071-.07,1.994,1.373.41.275a.445.445,0,0,0,.412-.074v.141a1.624,1.624,0,0,0-.412.275c-.134.137-.272.207-.41.34l-.065-.068c.065-.065.2-.207.134-.34l-.278-.207-.41-.274-.757.549Zm-3.443.5a.405.405,0,0,0-.481.072l-.065-.141c.138-.07.2-.07.272-.2l.274-.141,2.686.9-.759-1.035c-.136-.127-.272-.4-.41-.541-.2-.142-.278-.068-.483,0l-.071-.068c.14-.074.276-.141.418-.207a.551.551,0,0,1,.274-.279l.067.076c-.067.137-.2.137-.134.336a7.786,7.786,0,0,0,.483.684l1.1,1.518-.067.065a.943.943,0,0,1-.414-.137l-2.477-.822.895,1.235a2.576,2.576,0,0,0,.414.479.437.437,0,0,0,.41-.074v.074a.65.65,0,0,1-.339.272,1.293,1.293,0,0,0-.349.275l-.065-.066c.142-.139.207-.209.142-.412a2.244,2.244,0,0,0-.353-.484Zm-1.261,2.745a3.025,3.025,0,0,0,.134.682c.073.139.272.07.343,0l.073.07c-.144.068-.209.135-.343.209a1.84,1.84,0,0,0-.351.2l-.063-.063a.4.4,0,0,0,.134-.482,4.264,4.264,0,0,0-.134-.887l-.349-1.856h.144L575.7-87.4a2.325,2.325,0,0,0,.412.342.62.62,0,0,0,.347,0l.073.065a1.893,1.893,0,0,0-.485.279,1.766,1.766,0,0,0-.485.277l-.065-.139c.14,0,.278-.139.2-.275a.936.936,0,0,0-.272-.272l-.349-.277-.822.407Z" transform="translate(-532.443 137.76)" fill="#fff"/>
  <path id="Tracciato_141" data-name="Tracciato 141" d="M559.2-101.767a4.226,4.226,0,0,1-.153-1.109c.021-.171-.115-.325-.4-.456s-.659-1.045-1.126-2.752l-.648-.028c.6,1.985.973,3,1.136,3.043s.326.253.49.636a6.673,6.673,0,0,1,.015,1.275c-.031.547.155.813.567.79l-.674.729.764-.028.115-1.394Z" transform="translate(-512.021 125.861)" fill="#747474"/>
  <path id="Tracciato_142" data-name="Tracciato 142" d="M582.738-105.527,578.173-92.5h8.975Zm8.417,25.246-2.13-6.337H576.194l-2.182,6.337h-7.354l13.136-35.807h5.529l13.189,35.807Z" transform="translate(-503.054 116.889)" fill="#747474"/>
  <path id="Tracciato_143" data-name="Tracciato 143" d="M599.177-109.852h-6.645v9.456h6.645c3.094,0,5.123-1.962,5.123-4.728s-2.029-4.728-5.123-4.728m5.477,29.571L597.6-94.563h-5.073v14.282h-7.05v-35.807h14.151c7.354,0,11.716,4.98,11.716,10.964a9.65,9.65,0,0,1-6.594,9.4l8.065,15.439Z" transform="translate(-485.818 116.889)" fill="#747474"/>
  <path id="Tracciato_144" data-name="Tracciato 144" d="M602.268-80.281v-35.807h23.787v6.236H609.318v8.4H623.57v6.238H609.318v8.7h16.737v6.236Z" transform="translate(-470.447 116.889)" fill="#747474"/>
  <path id="Tracciato_145" data-name="Tracciato 145" d="M631.345-109.852H624.7v9.456h6.645c3.094,0,5.122-1.962,5.122-4.728s-2.029-4.728-5.122-4.728m5.477,29.571-7.05-14.282H624.7v14.282h-7.05v-35.807H631.8c7.354,0,11.716,4.98,11.716,10.964a9.65,9.65,0,0,1-6.594,9.4l8.065,15.439Z" transform="translate(-456.363 116.889)" fill="#747474"/>
  <path id="Tracciato_146" data-name="Tracciato 146" d="M649.559-105.527,644.994-92.5h8.979Zm8.419,25.246-2.13-6.337H643.017l-2.182,6.337h-7.354l13.138-35.807h5.527l13.188,35.807Z" transform="translate(-441.867 116.889)" fill="#747474"/>
</svg>
